<?xml version="1.0" encoding="UTF-8" standalone="yes"?>
<!DOCTYPE svg PUBLIC "-//W3C//DTD SVG 1.1//EN" "http://www.w3.org/Graphics/SVG/1.1/DTD/svg11.dtd">

<svg width="100" height="16" viewBox="0 0 100 16" xmlns="http://www.w3.org/2000/svg" xmlns:xlink="http://www.w3.org/1999/xlink" version="1.1" baseProfile="full">
    <g transform="scale(0.100000,-0.100000) translate(0,-160)">
        <path d="M 1.000000 4.000000 L 760.199219 4.000000 L 760.199219 1.000000 L 1.000000 1.000000 Z" transform="scale(1.000000,1.000000) translate(105.570312,135.591797)" fill="#0071bb" opacity="1.000000"></path>
        <path d="M 61.429688 39.281250 L 45.228516 77.835938 L 29.232422 39.281250 Z M 1.000000 3.324219 L 1.000000 5.853516 Q 6.400391 6.468750 9.100586 9.955078 Q 11.800781 13.441406 18.363281 28.890625 L 47.552734 97.591797 L 50.287109 97.591797 L 85.150391 18.226562 Q 88.636719 10.296875 90.721680 8.416992 Q 92.806641 6.537109 97.728516 5.853516 L 97.728516 3.324219 L 62.113281 3.324219 L 62.113281 5.853516 Q 68.265625 6.400391 70.042969 7.186523 Q 71.820312 7.972656 71.820312 11.048828 Q 71.820312 12.074219 71.136719 14.671875 Q 70.453125 17.269531 69.222656 20.140625 L 63.412109 33.607422 L 26.771484 33.607422 Q 21.302734 19.867188 20.243164 16.825195 Q 19.183594 13.783203 19.183594 12.005859 Q 19.183594 8.451172 22.054688 7.083984 Q 23.832031 6.263672 28.753906 5.853516 L 28.753906 3.324219 Z M 102.787109 95.951172 L 181.878906 95.951172 L 182.630859 72.162109 L 179.281250 72.162109 Q 176.820312 83.373047 173.026367 86.756836 Q 169.232422 90.140625 157.064453 90.140625 L 149.271484 90.140625 L 149.271484 18.500000 Q 149.271484 10.365234 151.800781 8.416992 Q 154.330078 6.468750 162.875000 5.853516 L 162.875000 3.324219 L 122.064453 3.324219 L 122.064453 5.853516 Q 130.951172 6.537109 133.138672 8.792969 Q 135.326172 11.048828 135.326172 20.140625 L 135.326172 90.140625 L 127.533203 90.140625 Q 115.912109 90.140625 111.708008 86.791016 Q 107.503906 83.441406 105.384766 72.162109 L 101.966797 72.162109 Z M 213.392578 51.244141 Q 228.500000 51.791016 234.994141 54.388672 Q 246.136719 58.968750 246.136719 71.615234 Q 246.136719 83.783203 236.156250 88.226562 Q 230.824219 90.619141 222.005859 90.619141 Q 216.058594 90.619141 214.725586 89.764648 Q 213.392578 88.910156 213.392578 85.765625 Z M 187.142578 5.853516 Q 195.208984 6.605469 197.191406 8.998047 Q 199.173828 11.390625 199.173828 20.140625 L 199.173828 80.775391 Q 199.173828 88.158203 196.952148 90.448242 Q 194.730469 92.738281 187.142578 93.353516 L 187.142578 95.951172 L 225.902344 95.951172 Q 238.001953 95.951172 246.068359 92.875000 Q 261.380859 87.064453 261.380859 71.478516 Q 261.380859 61.019531 254.579102 55.414062 Q 247.777344 49.808594 236.087891 48.031250 L 264.935547 12.552734 Q 267.601562 9.271484 270.267578 7.767578 Q 272.933594 6.263672 277.103516 5.853516 L 277.103516 3.324219 L 254.544922 3.324219 L 221.185547 46.390625 L 213.392578 46.048828 L 213.392578 18.500000 Q 213.392578 10.707031 215.750977 8.622070 Q 218.109375 6.537109 226.039062 5.853516 L 226.039062 3.324219 L 187.142578 3.324219 Z M 281.205078 5.853516 Q 289.750000 6.468750 292.279297 8.416992 Q 294.808594 10.365234 294.808594 18.500000 L 294.808594 80.775391 Q 294.808594 88.500000 292.279297 90.721680 Q 289.750000 92.943359 281.205078 93.353516 L 281.205078 95.951172 L 322.630859 95.951172 L 322.630859 93.353516 Q 314.085938 92.943359 311.556641 90.721680 Q 309.027344 88.500000 309.027344 80.775391 L 309.027344 18.500000 Q 309.027344 10.365234 311.556641 8.416992 Q 314.085938 6.468750 322.630859 5.853516 L 322.630859 3.324219 L 281.205078 3.324219 Z M 377.386719 97.591797 Q 384.974609 97.591797 392.972656 95.335938 Q 400.970703 93.080078 401.927734 93.080078 Q 403.910156 93.080078 405.687500 94.173828 Q 407.464844 95.267578 408.148438 97.591797 L 411.087891 97.591797 L 412.386719 66.146484 L 409.173828 66.146484 Q 406.371094 75.511719 401.859375 81.253906 Q 393.246094 92.054688 378.685547 92.054688 Q 363.988281 92.054688 354.657227 80.433594 Q 345.326172 68.812500 345.326172 48.441406 Q 345.326172 29.710938 355.135742 18.534180 Q 364.945312 7.357422 379.984375 7.357422 Q 390.853516 7.357422 400.013672 12.552734 Q 405.277344 15.492188 411.566406 21.439453 L 414.164062 18.841797 Q 409.515625 12.962891 402.611328 8.519531 Q 390.853516 1.000000 377.113281 1.000000 Q 354.554688 1.000000 341.292969 15.423828 Q 329.056641 28.753906 329.056641 48.714844 Q 329.056641 69.154297 341.976562 83.031250 Q 355.580078 97.591797 377.386719 97.591797 Z M 421.478516 5.853516 Q 430.023438 6.537109 432.074219 8.895508 Q 434.125000 11.253906 434.125000 20.140625 L 434.125000 80.775391 Q 434.125000 88.363281 431.834961 90.584961 Q 429.544922 92.806641 421.478516 93.353516 L 421.478516 95.951172 L 461.400391 95.951172 L 461.400391 93.353516 Q 453.197266 92.943359 450.804688 90.619141 Q 448.412109 88.294922 448.412109 80.775391 L 448.412109 52.064453 Q 461.332031 63.070312 469.535156 70.794922 Q 484.232422 84.808594 484.232422 88.773438 Q 484.232422 91.576172 481.737305 92.464844 Q 479.242188 93.353516 474.662109 93.353516 L 474.662109 95.951172 L 511.302734 95.951172 L 511.302734 93.695312 Q 504.603516 93.011719 500.741211 91.029297 Q 496.878906 89.046875 490.042969 82.347656 L 463.451172 56.302734 L 496.058594 21.097656 Q 505.150391 11.322266 508.431641 8.895508 Q 511.712891 6.468750 518.070312 5.716797 L 518.070312 3.324219 L 475.277344 3.324219 L 475.277344 5.853516 Q 481.087891 6.058594 483.138672 6.776367 Q 485.189453 7.494141 485.189453 9.613281 Q 485.189453 10.775391 483.856445 13.167969 Q 482.523438 15.560547 479.652344 18.705078 L 453.128906 47.826172 L 448.412109 43.792969 L 448.412109 18.500000 Q 448.412109 10.707031 450.770508 8.622070 Q 453.128906 6.537109 461.058594 5.853516 L 461.058594 3.324219 L 421.478516 3.324219 Z M 577.611328 5.853516 Q 585.335938 6.673828 587.625977 8.622070 Q 589.916016 10.570312 589.916016 18.500000 L 589.916016 80.775391 Q 589.916016 88.226562 587.660156 90.516602 Q 585.404297 92.806641 577.611328 93.353516 L 577.611328 95.951172 L 617.191406 95.951172 L 617.191406 93.353516 Q 609.466797 92.943359 606.834961 90.824219 Q 604.203125 88.705078 604.203125 81.732422 L 604.203125 14.466797 Q 604.203125 12.142578 604.989258 10.809570 Q 605.775391 9.476562 608.441406 9.134766 Q 610.013672 8.929688 611.756836 8.861328 Q 613.500000 8.792969 618.285156 8.792969 Q 636.947266 8.792969 643.509766 11.869141 Q 650.072266 14.945312 656.224609 27.591797 L 659.779297 27.591797 L 652.943359 3.324219 L 577.611328 3.324219 Z M 703.187500 95.951172 L 703.187500 93.353516 Q 695.121094 92.806641 692.728516 90.653320 Q 690.335938 88.500000 690.335938 80.775391 L 690.335938 36.000000 Q 690.335938 24.994141 693.343750 18.841797 Q 698.949219 7.630859 714.603516 7.630859 Q 731.761719 7.630859 737.640625 19.115234 Q 740.921875 25.541016 740.921875 38.939453 L 740.921875 75.375000 Q 740.921875 86.791016 738.187500 89.696289 Q 735.453125 92.601562 727.796875 93.353516 L 727.796875 95.951172 L 760.199219 95.951172 L 760.199219 93.353516 Q 752.064453 92.464844 749.569336 89.422852 Q 747.074219 86.380859 747.074219 75.375000 L 747.074219 38.939453 Q 747.074219 24.447266 742.630859 16.312500 Q 734.427734 1.341797 711.458984 1.341797 Q 688.763672 1.341797 680.560547 16.107422 Q 676.117188 24.037109 676.117188 37.025391 L 676.117188 80.775391 Q 676.117188 88.431641 673.758789 90.584961 Q 671.400391 92.738281 663.470703 93.353516 L 663.470703 95.951172 Z" transform="scale(1.000000,1.000000) translate(105.570312,19.500000)" fill="#0071bb" opacity="1.000000"></path>
        <path d="M 51.361328 120.091797 L 51.361328 116.751953 Q 45.033203 116.927734 41.869141 115.785156 Q 38.705078 114.642578 38.705078 110.863281 Q 38.705078 109.720703 39.232422 108.006836 Q 39.759766 106.292969 41.605469 103.480469 L 68.236328 63.490234 L 94.076172 104.095703 Q 95.658203 106.644531 96.141602 108.314453 Q 96.625000 109.984375 96.625000 110.775391 Q 96.625000 114.642578 92.494141 115.873047 Q 90.033203 116.664062 84.056641 116.751953 L 84.056641 120.091797 L 123.431641 120.091797 L 123.431641 116.751953 Q 117.982422 116.488281 113.675781 113.500000 Q 106.996094 108.841797 98.646484 96.185547 L 72.015625 55.580078 L 72.015625 20.511719 Q 72.015625 10.052734 75.399414 7.459961 Q 78.783203 4.867188 90.560547 4.251953 L 90.560547 1.000000 L 35.541016 1.000000 L 35.541016 4.251953 Q 47.757812 4.955078 50.702148 7.899414 Q 53.646484 10.843750 53.646484 22.621094 L 53.646484 53.910156 L 30.091797 88.451172 Q 17.875000 106.292969 12.953125 111.346680 Q 8.031250 116.400391 1.000000 116.751953 L 1.000000 120.091797 Z" transform="scale(1.000000,1.000000) translate(882.769531,19.500000)" fill="#0071bb" opacity="1.000000"></path>
        <path d="M 75.970703 87.396484 Q 75.970703 103.919922 61.732422 110.072266 Q 54.085938 113.412109 42.396484 113.412109 Q 36.859375 113.412109 35.584961 112.313477 Q 34.310547 111.214844 34.310547 107.435547 L 34.310547 60.501953 Q 39.144531 60.062500 40.638672 59.974609 Q 42.132812 59.886719 43.539062 59.886719 Q 55.931641 59.886719 63.050781 63.402344 Q 75.970703 69.818359 75.970703 87.396484 Z M 1.000000 4.251953 Q 11.283203 5.218750 13.832031 8.338867 Q 16.380859 11.458984 16.380859 22.621094 L 16.380859 100.580078 Q 16.380859 109.984375 13.524414 112.972656 Q 10.667969 115.960938 1.000000 116.751953 L 1.000000 120.091797 L 48.460938 120.091797 Q 71.312500 120.091797 83.441406 111.214844 Q 95.570312 102.337891 95.570312 87.835938 Q 95.570312 69.466797 82.123047 61.205078 Q 68.675781 52.943359 48.460938 52.943359 Q 45.560547 52.943359 41.034180 53.075195 Q 36.507812 53.207031 34.310547 53.207031 L 34.310547 20.511719 Q 34.310547 10.316406 37.430664 7.679688 Q 40.550781 5.042969 51.361328 4.251953 L 51.361328 1.000000 L 1.000000 1.000000 Z" transform="scale(1.000000,1.000000) translate(-7.000000,19.500000)" fill="#0071bb" opacity="1.000000"></path>
    </g>
</svg>